<svg width="200" height="56" viewBox="0 0 200 56" fill="none" xmlns="http://www.w3.org/2000/svg">
<path d="M199.896 30.8646C200.034 31.095 200.034 31.3484 199.896 31.6249C199.573 32.2699 199.044 33.0071 198.306 33.8365C197.615 34.6198 196.74 35.38 195.68 36.1173C194.62 36.8084 193.376 37.4074 191.948 37.9142C190.52 38.375 188.907 38.6054 187.11 38.6054C184.99 38.6054 183.032 38.2137 181.235 37.4304C179.438 36.6011 177.895 35.4492 176.605 33.9747C175.314 32.5003 174.278 30.7264 173.494 28.6529C172.757 26.5795 172.343 24.2757 172.25 21.7416C172.204 19.2995 172.527 17.0418 173.218 14.9684C173.909 12.8489 174.923 11.0059 176.259 9.43927C177.595 7.82661 179.185 6.53649 181.028 5.56889C182.917 4.60129 184.99 4.04838 187.248 3.91016H188.285C190.174 3.91016 191.833 4.23269 193.261 4.87775C194.735 5.47674 195.956 6.28307 196.924 7.29674C197.938 8.31041 198.698 9.46231 199.205 10.7524C199.712 12.0426 199.965 13.3327 199.965 14.6228C199.965 16.9727 199.504 18.8618 198.583 20.2902C197.661 21.7185 196.44 22.8243 194.92 23.6076C193.399 24.3909 191.671 24.9208 189.736 25.1973C187.801 25.4276 185.82 25.5659 183.792 25.6119H183.101L183.309 26.3031C183.493 26.9021 183.885 27.5932 184.484 28.3765C185.083 29.1598 185.82 29.92 186.695 30.6573C187.571 31.3484 188.561 31.9474 189.667 32.4542C190.819 32.915 192.017 33.1454 193.261 33.1454C195.381 33.1454 197.362 32.3851 199.205 30.8646C199.343 30.7264 199.481 30.6573 199.62 30.6573C199.804 30.6573 199.896 30.7264 199.896 30.8646ZM182.341 24.2988C184.092 23.9762 185.612 23.3773 186.903 22.5018C188.239 21.5803 189.345 20.4975 190.22 19.2534C191.095 18.0094 191.718 16.6732 192.086 15.2448C192.501 13.7704 192.662 12.3421 192.57 10.9598C192.432 9.02459 191.879 7.52712 190.911 6.46737C189.944 5.40763 188.7 4.87775 187.179 4.87775C184.737 4.87775 182.871 6.00661 181.581 8.26433C180.982 9.37016 180.544 10.6372 180.268 12.0656C180.037 13.4479 179.945 14.8532 179.991 16.2816C180.037 17.7099 180.222 19.1152 180.544 20.4975C180.867 21.8337 181.281 23.0086 181.788 24.0223L181.926 24.3679L182.341 24.2988Z" fill="white"/>
<path d="M168.638 36.4628C169.053 36.4628 169.26 36.6932 169.26 37.154C169.26 37.6147 169.076 37.8451 168.707 37.8451L155.575 37.9142C155.115 37.9142 154.884 37.6838 154.884 37.2231C154.93 36.7162 155.161 36.4628 155.575 36.4628C156.128 36.4628 156.566 36.2785 156.889 35.9099C157.211 35.5413 157.441 35.1036 157.58 34.5967C157.718 34.0438 157.787 33.514 157.787 33.0071C157.833 32.4542 157.856 32.0395 157.856 31.7631L157.925 14.9684C157.925 14.0008 157.833 13.0102 157.649 11.9965C157.511 10.9828 157.211 10.0613 156.75 9.23193C156.336 8.40256 155.76 7.73446 155.022 7.22763C154.285 6.72079 153.341 6.46737 152.189 6.46737C151.083 6.46737 150.161 6.78991 149.424 7.43497C148.733 8.08003 148.18 8.86332 147.765 9.78484C147.351 10.6603 147.051 11.5818 146.867 12.5494C146.729 13.517 146.66 14.3233 146.66 14.9684V31.2793C146.66 32.339 146.729 33.2145 146.867 33.9056C147.005 34.5507 147.19 35.0805 147.42 35.4952C147.65 35.8638 147.904 36.1173 148.18 36.2555C148.457 36.3937 148.733 36.4628 149.01 36.4628C149.424 36.4628 149.632 36.6932 149.632 37.154C149.632 37.6147 149.424 37.8451 149.01 37.8451L135.947 37.9142C135.486 37.9142 135.256 37.6838 135.256 37.2231C135.256 36.7162 135.486 36.4628 135.947 36.4628C136.5 36.4628 136.938 36.2785 137.26 35.9099C137.583 35.5413 137.813 35.1036 137.951 34.5967C138.09 34.0438 138.159 33.514 138.159 33.0071C138.205 32.4542 138.228 32.0395 138.228 31.7631V13.517C138.228 12.1347 138.043 11.098 137.675 10.4069C137.306 9.66965 136.822 9.16282 136.223 8.88636C135.855 8.70206 135.694 8.4256 135.74 8.05699C135.786 7.64231 135.993 7.43497 136.362 7.43497C137.329 7.43497 138.55 7.29674 140.025 7.02028C141.545 6.69775 143.388 5.96054 145.554 4.80864C145.784 4.67041 146.015 4.67041 146.245 4.80864C146.521 4.94687 146.66 5.15421 146.66 5.43066V9.37016C147.074 8.35649 147.673 7.43497 148.457 6.6056C149.102 5.96054 149.931 5.36155 150.945 4.80864C152.004 4.20965 153.341 3.91016 154.953 3.91016C156.842 3.91016 158.501 4.20965 159.93 4.80864C161.358 5.40763 162.533 6.26003 163.454 7.36586C164.422 8.4256 165.136 9.71573 165.597 11.2362C166.104 12.7107 166.357 14.3464 166.357 16.1433V31.2793C166.357 32.339 166.426 33.2145 166.564 33.9056C166.703 34.5507 166.887 35.0805 167.117 35.4952C167.348 35.8638 167.578 36.1173 167.809 36.2555C168.085 36.3937 168.361 36.4628 168.638 36.4628Z" fill="white"/>
<path d="M131.911 36.4628C132.372 36.4628 132.602 36.6932 132.602 37.154C132.602 37.6147 132.395 37.8451 131.98 37.8451H126.382C125.414 37.8451 124.539 37.6147 123.755 37.154C122.972 36.6932 122.35 36.0712 121.889 35.2879C120.968 36.1633 119.724 36.9466 118.157 37.6378C116.591 38.2828 114.724 38.6054 112.559 38.6054C110.624 38.6054 108.942 38.2828 107.514 37.6378C106.085 36.9466 104.933 36.0712 104.058 35.0114C103.182 33.9056 102.607 32.6385 102.33 31.2102C102.054 29.7818 102.1 28.3074 102.468 26.7869C102.791 25.5428 103.436 24.3679 104.403 23.2621C105.417 22.1102 106.73 21.1426 108.343 20.3593C109.956 19.5299 111.845 18.9079 114.01 18.4932C116.176 18.0785 118.572 17.9633 121.198 18.1476V13.6552C121.198 12.6876 121.129 11.697 120.991 10.6833C120.899 9.66965 120.668 8.7251 120.3 7.84965C119.977 6.97421 119.47 6.26003 118.779 5.70712C118.134 5.15421 117.236 4.87775 116.084 4.87775C115.208 4.87775 114.448 5.06206 113.803 5.43066C113.158 5.79927 112.582 6.30611 112.075 6.95117C111.568 7.55016 111.084 8.28737 110.624 9.16282C110.163 10.0383 109.679 11.0059 109.172 12.0656C108.85 12.7107 108.435 13.1945 107.928 13.517C107.421 13.8395 106.892 14.0008 106.339 14.0008C105.832 14.0008 105.348 13.8856 104.887 13.6552C104.427 13.3788 104.081 13.0102 103.851 12.5494C103.62 12.0886 103.551 11.5357 103.643 10.8907C103.735 10.2456 104.058 9.50839 104.611 8.67902C105.118 7.9418 105.809 7.2737 106.684 6.67471C107.606 6.07573 108.596 5.56889 109.656 5.15421C110.762 4.73952 111.891 4.44003 113.043 4.25572C114.241 4.02535 115.393 3.91016 116.498 3.91016C118.295 3.91016 119.977 4.1175 121.544 4.53218C123.156 4.94687 124.562 5.59193 125.76 6.46737C126.958 7.29674 127.902 8.35649 128.593 9.64661C129.285 10.8907 129.63 12.3651 129.63 14.0699V31.2793C129.63 32.339 129.699 33.2145 129.837 33.9056C129.976 34.5507 130.16 35.0805 130.39 35.4952C130.621 35.8638 130.851 36.1173 131.081 36.2555C131.358 36.3937 131.634 36.4628 131.911 36.4628ZM110.831 29.3441C110.877 31.3714 111.545 32.8919 112.835 33.9056C114.126 34.9193 115.646 35.4261 117.397 35.4261C118.779 35.4261 120.138 35.1266 121.475 34.5276C121.29 34.113 121.198 33.5831 121.198 32.938V19.0461C118.065 19.2765 115.531 20.2441 113.596 21.9489C111.707 23.6537 110.785 26.1188 110.831 29.3441Z" fill="white"/>
<path d="M98.5055 30.796C98.6437 30.6117 98.805 30.6117 98.9893 30.796C99.2197 30.9342 99.2888 31.1185 99.1966 31.3489C98.9202 32.0861 98.3903 32.8925 97.607 33.7679C96.8698 34.5973 95.9252 35.3806 94.7733 36.1178C93.6675 36.855 92.3774 37.454 90.903 37.9147C89.4746 38.3755 87.908 38.6059 86.2032 38.6059C84.1298 38.6059 82.1946 38.1682 80.3976 37.2927C78.6007 36.3712 77.0341 35.1041 75.6979 33.4915C74.4078 31.8788 73.371 29.9897 72.5878 27.8241C71.8505 25.6125 71.4819 23.2395 71.4819 20.7054C71.4819 17.8026 71.8966 15.2914 72.726 13.172C73.6014 11.0064 74.7303 9.23246 76.1126 7.85018C77.4948 6.4679 79.0614 5.45423 80.8123 4.80917C82.5632 4.11803 84.3602 3.77246 86.2032 3.77246C88.9678 3.77246 91.2946 4.32537 93.1837 5.43119C95.1189 6.53702 96.4551 7.73499 97.1923 9.02512C97.6531 9.76233 97.9065 10.4535 97.9526 11.0985C97.9986 11.7436 97.9065 12.2965 97.6761 12.7573C97.4457 13.218 97.1232 13.5866 96.7085 13.8631C96.2938 14.0935 95.8331 14.2087 95.3262 14.2087C94.6812 14.2087 94.0592 13.9783 93.4602 13.5175C92.8612 13.0107 92.4235 12.2044 92.147 11.0985C91.5941 8.84081 90.7878 7.22816 89.728 6.26056C88.7143 5.24689 87.5394 4.74005 86.2032 4.74005C85.3738 4.74005 84.4754 5.01651 83.5078 5.56942C82.5862 6.07626 81.849 6.79043 81.2961 7.71195C81.0197 8.12664 80.7202 8.72562 80.3976 9.50892C80.0751 10.2461 79.8217 11.1907 79.6374 12.3426C79.4992 13.4484 79.4761 14.7616 79.5683 16.2821C79.7065 17.7565 80.0751 19.4152 80.6741 21.2583C81.3652 23.3778 82.2176 25.2208 83.2313 26.7874C84.245 28.354 85.3047 29.6672 86.4105 30.7269C87.5164 31.7406 88.6452 32.5008 89.7971 33.0077C90.9951 33.4684 92.124 33.6988 93.1837 33.6988C95.3032 33.6988 97.0771 32.7312 98.5055 30.796Z" fill="white"/>
<path d="M70.4672 6.32937C70.6976 7.15873 70.5824 7.94203 70.1216 8.67924C69.6609 9.37038 69.0158 9.71595 68.1864 9.71595C67.4953 9.71595 66.8963 9.6238 66.3895 9.43949C65.8826 9.25519 65.3758 9.04785 64.869 8.81747C64.4082 8.58709 63.9244 8.37975 63.4176 8.19544C62.9568 8.01114 62.45 7.91899 61.8971 7.91899C61.6667 7.91899 61.3902 8.01114 61.0677 8.19544C60.7452 8.33367 60.4226 8.54101 60.1001 8.81747C59.7776 9.04785 59.4781 9.30127 59.2016 9.57772C58.9252 9.8081 58.7178 10.0154 58.5796 10.1997V31.2795C58.5796 32.3392 58.6487 33.2147 58.7869 33.9058C58.9252 34.5509 59.1095 35.0808 59.3398 35.4954C59.5702 35.8641 59.8236 36.1175 60.1001 36.2557C60.3765 36.3939 60.653 36.463 60.9295 36.463C61.3441 36.463 61.5515 36.6934 61.5515 37.1542C61.5515 37.6149 61.3441 37.8453 60.9295 37.8453L47.8669 37.9144C47.4062 37.9144 47.1758 37.6841 47.1758 37.2233C47.1758 36.7165 47.4062 36.463 47.8669 36.463C48.4198 36.463 48.8576 36.2787 49.1801 35.9101C49.5026 35.5415 49.733 35.1038 49.8712 34.597C50.0095 34.0441 50.0786 33.5142 50.0786 33.0073C50.1246 32.4544 50.1477 32.0398 50.1477 31.7633V13.5172C50.1477 12.1349 49.9403 11.0982 49.5257 10.4071C49.157 9.66987 48.6963 9.16304 48.1434 8.88658C47.7748 8.70228 47.6135 8.42582 47.6596 8.05721C47.7057 7.64253 47.913 7.43519 48.2816 7.43519C49.2492 7.43519 50.4702 7.29696 51.9446 7.02051C53.4651 6.69797 55.3082 5.96076 57.4738 4.80886C57.7041 4.67063 57.9345 4.67063 58.1649 4.80886C58.4414 4.94709 58.5796 5.15443 58.5796 5.43088V8.54101C59.4089 7.25088 60.5148 6.1681 61.8971 5.29266C63.2793 4.41721 64.7538 3.97949 66.3203 3.97949C67.5183 3.97949 68.4629 4.23291 69.154 4.73974C69.8912 5.20051 70.329 5.73038 70.4672 6.32937Z" fill="white"/>
<path d="M29.3984 0L43.784 44.2636C46.071 51.4195 50.0547 55.0344 50.0547 55.0344H32.0542C32.7919 52.8581 33.087 50.8293 33.087 48.8743C33.087 44.4111 31.5378 40.5012 30.2099 36.8494C25.636 36.8125 20.767 36.8125 16.0455 36.8125H10.2175C8.96337 40.4274 8.22565 43.3414 8.22565 46.1816C8.22565 49.0219 8.96337 51.7515 10.6601 55.0344H0C0 55.0344 3.65174 51.0875 5.68049 44.448L18.3325 2.61893L17.4472 0H29.3984ZM19.5129 6.23378L10.697 34.8944H29.5459L19.5129 6.23378Z" fill="white"/>
<path d="M196.129 55.6428C195.594 55.6428 195.051 55.5691 194.498 55.4217C193.945 55.2927 193.456 55.0807 193.032 54.7858C192.811 54.5831 192.701 54.3619 192.701 54.1223C192.701 53.8827 192.793 53.6708 192.977 53.4865C193.18 53.3022 193.401 53.21 193.641 53.21C193.77 53.21 193.899 53.2469 194.028 53.3206C194.359 53.5233 194.737 53.6892 195.161 53.8182C195.603 53.9288 196.018 53.9841 196.405 53.9841C196.774 53.9841 197.087 53.9196 197.345 53.7906C197.622 53.6616 197.76 53.4496 197.76 53.1547C197.76 52.8599 197.631 52.6387 197.373 52.4912C197.115 52.3438 196.672 52.2332 196.046 52.1595C195.788 52.1226 195.474 52.0766 195.106 52.0213C194.756 51.966 194.405 51.8646 194.055 51.7172C193.705 51.5697 193.41 51.3486 193.171 51.0537C192.931 50.7588 192.811 50.3625 192.811 49.8649C192.811 49.054 193.106 48.4089 193.696 47.9297C194.304 47.4505 195.115 47.2109 196.129 47.2109C196.719 47.2109 197.271 47.2847 197.787 47.4321C198.322 47.5795 198.718 47.7638 198.976 47.985C199.179 48.1509 199.28 48.3444 199.28 48.5656C199.28 48.8052 199.197 49.0171 199.032 49.2014C198.866 49.3857 198.663 49.4779 198.423 49.4779C198.294 49.4779 198.175 49.4502 198.064 49.3949C197.769 49.2291 197.437 49.1093 197.069 49.0355C196.719 48.9434 196.378 48.8973 196.046 48.8973C195.659 48.8973 195.327 48.9618 195.051 49.0908C194.793 49.2014 194.664 49.3857 194.664 49.6437C194.664 49.8281 194.737 49.9939 194.885 50.1414C195.051 50.2704 195.465 50.381 196.129 50.4731C196.442 50.51 196.792 50.5653 197.179 50.639C197.585 50.7127 197.972 50.8325 198.34 50.9984C198.709 51.1458 199.013 51.3854 199.253 51.7172C199.492 52.0489 199.612 52.5005 199.612 53.0718C199.612 53.6616 199.446 54.15 199.114 54.537C198.783 54.9056 198.35 55.1821 197.815 55.3664C197.299 55.5507 196.737 55.6428 196.129 55.6428Z" fill="white"/>
<path d="M189.737 55.6434C189.018 55.6434 188.428 55.4222 187.967 54.9799C187.506 54.5375 187.276 53.8741 187.276 52.9894V49.4784C187.276 49.2941 187.184 49.2019 187 49.2019H186.502C186.262 49.2019 186.06 49.1282 185.894 48.9808C185.728 48.8149 185.645 48.6122 185.645 48.3726C185.645 48.1146 185.728 47.9026 185.894 47.7367C186.06 47.5709 186.262 47.4879 186.502 47.4879H187C187.184 47.4879 187.276 47.3958 187.276 47.2115V44.8892C187.276 44.6312 187.359 44.4285 187.525 44.281C187.709 44.1152 187.93 44.0322 188.188 44.0322C188.465 44.0322 188.686 44.1152 188.852 44.281C189.036 44.4285 189.128 44.6312 189.128 44.8892V47.2115C189.128 47.3958 189.221 47.4879 189.405 47.4879H190.898C191.119 47.4879 191.312 47.5709 191.478 47.7367C191.644 47.9026 191.727 48.1146 191.727 48.3726C191.727 48.6122 191.644 48.8149 191.478 48.9808C191.331 49.1282 191.128 49.2019 190.87 49.2019H189.405C189.221 49.2019 189.128 49.2941 189.128 49.4784V52.7406C189.128 53.5147 189.442 53.9017 190.068 53.9017C190.253 53.9017 190.446 53.8741 190.649 53.8188C190.852 53.7635 190.99 53.7358 191.064 53.7358C191.322 53.7358 191.515 53.8188 191.644 53.9846C191.792 54.1505 191.865 54.344 191.865 54.5652C191.865 54.7311 191.819 54.8969 191.727 55.0628C191.635 55.2103 191.487 55.3208 191.285 55.3946C191.082 55.4683 190.824 55.5236 190.511 55.5604C190.216 55.6157 189.958 55.6434 189.737 55.6434Z" fill="white"/>
<path d="M183.589 55.6428C183.35 55.6428 183.129 55.5691 182.926 55.4217C182.742 55.2742 182.649 55.0623 182.649 54.7858V51.3025C182.649 50.4915 182.465 49.8926 182.097 49.5055C181.746 49.1185 181.276 48.925 180.687 48.925C179.931 48.925 179.378 49.1738 179.028 49.6714C178.696 50.1506 178.53 50.6851 178.53 51.2748V54.7858C178.53 55.0623 178.429 55.2742 178.226 55.4217C178.042 55.5691 177.83 55.6428 177.59 55.6428C177.351 55.6428 177.13 55.5691 176.927 55.4217C176.743 55.2742 176.65 55.0623 176.65 54.7858V48.2891C176.65 47.9758 176.743 47.7454 176.927 47.598C177.13 47.4321 177.351 47.3492 177.59 47.3492C177.83 47.3492 178.042 47.4321 178.226 47.598C178.429 47.7454 178.53 47.9758 178.53 48.2891C178.844 47.9758 179.249 47.7178 179.747 47.515C180.244 47.3123 180.714 47.2109 181.157 47.2109C182.189 47.2109 183.009 47.5427 183.617 48.2062C184.225 48.8697 184.529 49.8465 184.529 51.1366V54.7858C184.529 55.0623 184.428 55.2742 184.225 55.4217C184.023 55.5691 183.811 55.6428 183.589 55.6428Z" fill="white"/>
<path d="M171.233 55.6428C169.85 55.6428 168.772 55.2466 167.998 54.4541C167.224 53.6616 166.837 52.5926 166.837 51.2472C166.837 50.0676 167.224 49.1001 167.998 48.3444C168.791 47.5888 169.804 47.2109 171.039 47.2109C172.237 47.2109 173.195 47.5611 173.914 48.2615C174.633 48.9434 174.992 49.7912 174.992 50.8049C174.992 51.2103 174.882 51.5144 174.661 51.7172C174.458 51.9199 174.191 52.0213 173.859 52.0213H169.049C168.864 52.0213 168.8 52.1226 168.855 52.3254C169.002 52.8414 169.297 53.2469 169.74 53.5418C170.2 53.8182 170.717 53.9565 171.288 53.9565C171.712 53.9565 172.117 53.9012 172.504 53.7906C172.91 53.68 173.26 53.5141 173.555 53.293C173.647 53.2192 173.767 53.1824 173.914 53.1824C174.117 53.1824 174.301 53.2745 174.467 53.4588C174.633 53.6247 174.716 53.8274 174.716 54.067C174.716 54.1776 174.697 54.2882 174.661 54.3988C174.624 54.5094 174.541 54.62 174.412 54.7305C173.933 55.0807 173.417 55.3203 172.864 55.4493C172.329 55.5783 171.785 55.6428 171.233 55.6428ZM172.836 50.5837C172.947 50.5837 173.002 50.5284 173.002 50.4178C173.002 49.9939 172.808 49.6253 172.421 49.312C172.053 48.9987 171.592 48.842 171.039 48.842C170.56 48.842 170.099 48.971 169.657 49.2291C169.233 49.4871 168.975 49.8281 168.883 50.252C168.883 50.252 168.883 50.2612 168.883 50.2796C168.864 50.3533 168.855 50.4178 168.855 50.4731C168.873 50.5284 168.956 50.5561 169.104 50.5561L172.836 50.5837Z" fill="white"/>
<path d="M162.202 55.6428C161.925 55.6428 161.667 55.5783 161.428 55.4493C161.188 55.3387 161.013 55.1637 160.903 54.9241L158.166 48.4826C158.129 48.3352 158.11 48.2246 158.11 48.1509C158.11 47.856 158.212 47.6256 158.414 47.4597C158.617 47.2939 158.838 47.2109 159.078 47.2109C159.244 47.2109 159.4 47.257 159.548 47.3492C159.714 47.4413 159.834 47.5888 159.907 47.7915L161.843 52.7953C161.935 52.9796 162.054 53.0718 162.202 53.0718C162.386 53.0718 162.506 52.9796 162.561 52.7953L164.469 47.7915C164.543 47.5888 164.653 47.4413 164.801 47.3492C164.966 47.257 165.132 47.2109 165.298 47.2109C165.556 47.2109 165.777 47.2939 165.962 47.4597C166.164 47.6256 166.266 47.8468 166.266 48.1232C166.266 48.2154 166.247 48.3352 166.211 48.4826L163.501 54.9241C163.391 55.1637 163.216 55.3387 162.976 55.4493C162.736 55.5783 162.478 55.6428 162.202 55.6428Z" fill="white"/>
<path d="M151.743 55.3658C151.282 55.3658 150.914 55.2276 150.637 54.9512C150.361 54.6747 150.223 54.3061 150.223 53.8453V45.7452C150.223 45.3213 150.361 44.9803 150.637 44.7223C150.932 44.4458 151.273 44.3076 151.66 44.3076H155.835C156.148 44.3076 156.369 44.3906 156.498 44.5564C156.646 44.7039 156.719 44.8974 156.719 45.137C156.719 45.3581 156.636 45.5517 156.471 45.7175C156.323 45.8834 156.111 45.9664 155.835 45.9664H152.877C152.397 45.9664 152.158 46.2059 152.158 46.6851V48.2056C152.158 48.6848 152.379 48.9244 152.821 48.9244H155.558C155.872 48.9244 156.093 49.0074 156.222 49.1732C156.369 49.3391 156.443 49.5326 156.443 49.7538C156.443 49.9565 156.36 50.15 156.194 50.3344C156.047 50.5002 155.835 50.5832 155.558 50.5832H152.821C152.379 50.5832 152.158 50.8135 152.158 51.2743V52.9607C152.158 53.4399 152.388 53.6795 152.849 53.6795H156.111C156.424 53.6795 156.646 53.7716 156.775 53.9559C156.922 54.1218 156.996 54.3153 156.996 54.5365C156.996 54.7576 156.913 54.9512 156.747 55.117C156.6 55.2829 156.388 55.3658 156.111 55.3658H151.743Z" fill="white"/>
<path d="M138.154 55.6431C137.362 55.6431 136.652 55.4588 136.026 55.0902C135.399 54.7216 134.911 54.2147 134.56 53.5697C134.21 52.9062 134.035 52.169 134.035 51.358C134.035 50.5655 134.21 49.856 134.56 49.2293C134.911 48.6027 135.399 48.1143 136.026 47.7641C136.652 47.3955 137.362 47.2112 138.154 47.2112C138.67 47.2112 139.131 47.2941 139.537 47.46C139.942 47.6259 140.292 47.8563 140.587 48.1512V44.2808C140.587 43.9675 140.679 43.7371 140.864 43.5896C141.066 43.4238 141.288 43.3408 141.527 43.3408C141.767 43.3408 141.979 43.4238 142.163 43.5896C142.366 43.7371 142.467 43.9675 142.467 44.2808V54.7861C142.467 55.0625 142.366 55.2745 142.163 55.4219C141.979 55.5694 141.767 55.6431 141.527 55.6431C141.288 55.6431 141.066 55.5694 140.864 55.4219C140.679 55.2745 140.587 55.0625 140.587 54.7861V54.6755C140.292 54.9704 139.942 55.2008 139.537 55.3666C139.131 55.551 138.67 55.6431 138.154 55.6431ZM138.32 53.9291C139.021 53.9291 139.573 53.6987 139.979 53.2379C140.384 52.7587 140.587 52.1321 140.587 51.358C140.587 50.6208 140.384 50.0311 139.979 49.5887C139.573 49.1464 139.021 48.9252 138.32 48.9252C137.601 48.9252 137.021 49.1464 136.579 49.5887C136.136 50.0311 135.915 50.6208 135.915 51.358C135.915 52.1321 136.136 52.7587 136.579 53.2379C137.021 53.6987 137.601 53.9291 138.32 53.9291Z" fill="white"/>
<path d="M131.565 55.6428C131.325 55.6428 131.104 55.5691 130.902 55.4217C130.717 55.2742 130.625 55.0623 130.625 54.7858V51.3025C130.625 50.4915 130.441 49.8926 130.072 49.5055C129.722 49.1185 129.252 48.925 128.662 48.925C127.907 48.925 127.354 49.1738 127.003 49.6714C126.672 50.1506 126.506 50.6851 126.506 51.2748V54.7858C126.506 55.0623 126.405 55.2742 126.202 55.4217C126.017 55.5691 125.806 55.6428 125.566 55.6428C125.326 55.6428 125.105 55.5691 124.902 55.4217C124.718 55.2742 124.626 55.0623 124.626 54.7858V48.2891C124.626 47.9758 124.718 47.7454 124.902 47.598C125.105 47.4321 125.326 47.3492 125.566 47.3492C125.806 47.3492 126.017 47.4321 126.202 47.598C126.405 47.7454 126.506 47.9758 126.506 48.2891C126.819 47.9758 127.225 47.7178 127.722 47.515C128.22 47.3123 128.69 47.2109 129.132 47.2109C130.164 47.2109 130.984 47.5427 131.593 48.2062C132.201 48.8697 132.505 49.8465 132.505 51.1366V54.7858C132.505 55.0623 132.404 55.2742 132.201 55.4217C131.998 55.5691 131.786 55.6428 131.565 55.6428Z" fill="white"/>
<path d="M118.23 55.6428C117.438 55.6428 116.728 55.4585 116.101 55.0899C115.475 54.7213 114.986 54.2145 114.636 53.5694C114.286 52.9059 114.111 52.1687 114.111 51.3578C114.111 50.5653 114.286 49.8557 114.636 49.2291C114.986 48.6024 115.475 48.114 116.101 47.7638C116.728 47.3952 117.438 47.2109 118.23 47.2109C118.746 47.2109 119.207 47.3031 119.612 47.4874C120.018 47.6533 120.368 47.8744 120.663 48.1509C120.7 47.8929 120.81 47.6993 120.995 47.5703C121.179 47.4229 121.382 47.3492 121.603 47.3492C121.842 47.3492 122.054 47.4321 122.239 47.598C122.441 47.7454 122.543 47.9758 122.543 48.2891V54.7858C122.543 55.0623 122.441 55.2742 122.239 55.4217C122.054 55.5691 121.842 55.6428 121.603 55.6428C121.363 55.6428 121.142 55.5691 120.939 55.4217C120.755 55.2742 120.663 55.0623 120.663 54.7858V54.6752C120.368 54.9701 120.018 55.2005 119.612 55.3664C119.207 55.5507 118.746 55.6428 118.23 55.6428ZM118.396 53.9288C119.096 53.9288 119.649 53.6984 120.055 53.2377C120.46 52.7585 120.663 52.1319 120.663 51.3578C120.663 50.6206 120.46 50.0308 120.055 49.5885C119.649 49.1461 119.096 48.925 118.396 48.925C117.677 48.925 117.097 49.1461 116.654 49.5885C116.212 50.0308 115.991 50.6206 115.991 51.3578C115.991 52.1319 116.212 52.7585 116.654 53.2377C117.097 53.6984 117.677 53.9288 118.396 53.9288Z" fill="white"/>
<path d="M103.986 55.6428C103.452 55.6428 102.908 55.5691 102.355 55.4217C101.802 55.2927 101.314 55.0807 100.89 54.7858C100.669 54.5831 100.558 54.3619 100.558 54.1223C100.558 53.8827 100.65 53.6708 100.835 53.4865C101.037 53.3022 101.258 53.21 101.498 53.21C101.627 53.21 101.756 53.2469 101.885 53.3206C102.217 53.5233 102.595 53.6892 103.019 53.8182C103.461 53.9288 103.876 53.9841 104.263 53.9841C104.631 53.9841 104.945 53.9196 105.203 53.7906C105.479 53.6616 105.617 53.4496 105.617 53.1547C105.617 52.8599 105.488 52.6387 105.23 52.4912C104.972 52.3438 104.53 52.2332 103.903 52.1595C103.645 52.1226 103.332 52.0766 102.963 52.0213C102.613 51.966 102.263 51.8646 101.913 51.7172C101.563 51.5697 101.268 51.3486 101.028 51.0537C100.788 50.7588 100.669 50.3625 100.669 49.8649C100.669 49.054 100.964 48.4089 101.553 47.9297C102.162 47.4505 102.972 47.2109 103.986 47.2109C104.576 47.2109 105.129 47.2847 105.645 47.4321C106.179 47.5795 106.576 47.7638 106.834 47.985C107.036 48.1509 107.138 48.3444 107.138 48.5656C107.138 48.8052 107.055 49.0171 106.889 49.2014C106.723 49.3857 106.52 49.4779 106.281 49.4779C106.152 49.4779 106.032 49.4502 105.921 49.3949C105.626 49.2291 105.295 49.1093 104.926 49.0355C104.576 48.9434 104.235 48.8973 103.903 48.8973C103.516 48.8973 103.184 48.9618 102.908 49.0908C102.65 49.2014 102.521 49.3857 102.521 49.6437C102.521 49.8281 102.595 49.9939 102.742 50.1414C102.908 50.2704 103.323 50.381 103.986 50.4731C104.299 50.51 104.65 50.5653 105.037 50.639C105.442 50.7127 105.829 50.8325 106.198 50.9984C106.566 51.1458 106.871 51.3854 107.11 51.7172C107.35 52.0489 107.469 52.5005 107.469 53.0718C107.469 53.6616 107.304 54.15 106.972 54.537C106.64 54.9056 106.207 55.1821 105.673 55.3664C105.156 55.5507 104.594 55.6428 103.986 55.6428Z" fill="white"/>
<path d="M95.6935 55.6428C94.3112 55.6428 93.233 55.2466 92.459 54.4541C91.6849 53.6616 91.2979 52.5926 91.2979 51.2472C91.2979 50.0676 91.6849 49.1001 92.459 48.3444C93.2515 47.5888 94.2651 47.2109 95.5 47.2109C96.698 47.2109 97.6563 47.5611 98.3751 48.2615C99.0939 48.9434 99.4533 49.7912 99.4533 50.8049C99.4533 51.2103 99.3427 51.5144 99.1215 51.7172C98.9188 51.9199 98.6516 52.0213 98.3198 52.0213H93.5095C93.3252 52.0213 93.2607 52.1226 93.316 52.3254C93.4634 52.8414 93.7583 53.2469 94.2006 53.5418C94.6614 53.8182 95.1774 53.9565 95.7488 53.9565C96.1727 53.9565 96.5782 53.9012 96.9652 53.7906C97.3707 53.68 97.7208 53.5141 98.0157 53.293C98.1079 53.2192 98.2277 53.1824 98.3751 53.1824C98.5779 53.1824 98.7622 53.2745 98.928 53.4588C99.0939 53.6247 99.1768 53.8274 99.1768 54.067C99.1768 54.1776 99.1584 54.2882 99.1215 54.3988C99.0847 54.5094 99.0018 54.62 98.8727 54.7305C98.3935 55.0807 97.8775 55.3203 97.3246 55.4493C96.7901 55.5783 96.2464 55.6428 95.6935 55.6428ZM97.2969 50.5837C97.4075 50.5837 97.4628 50.5284 97.4628 50.4178C97.4628 49.9939 97.2693 49.6253 96.8823 49.312C96.5136 48.9987 96.0529 48.842 95.5 48.842C95.0208 48.842 94.56 48.971 94.1177 49.2291C93.6938 49.4871 93.4358 49.8281 93.3436 50.252C93.3436 50.252 93.3436 50.2612 93.3436 50.2796C93.3252 50.3533 93.316 50.4178 93.316 50.4731C93.3344 50.5284 93.4173 50.5561 93.5648 50.5561L97.2969 50.5837Z" fill="white"/>
<path d="M77.5913 55.6428C77.3517 55.6428 77.1306 55.5691 76.9278 55.4217C76.7435 55.2742 76.6514 55.0623 76.6514 54.7858V48.2891C76.6514 47.9758 76.7435 47.7454 76.9278 47.598C77.1306 47.4321 77.3517 47.3492 77.5913 47.3492C77.7756 47.3492 77.9507 47.3952 78.1166 47.4874C78.2825 47.5611 78.4023 47.6993 78.476 47.9021C78.5128 48.0127 78.5313 48.114 78.5313 48.2062C78.8077 47.9113 79.1671 47.6717 79.6094 47.4874C80.0518 47.3031 80.4849 47.2109 80.9088 47.2109C82.1068 47.2109 82.9914 47.6901 83.5628 48.6485C83.7839 48.2615 84.1433 47.9297 84.6409 47.6533C85.157 47.3584 85.7836 47.2109 86.5208 47.2109C87.5161 47.2109 88.3086 47.5427 88.8984 48.2062C89.4881 48.8697 89.783 49.8465 89.783 51.1366V54.7858C89.783 55.0623 89.6816 55.2742 89.4789 55.4217C89.2762 55.5691 89.0642 55.6428 88.8431 55.6428C88.6035 55.6428 88.3823 55.5691 88.1796 55.4217C87.9953 55.2742 87.9031 55.0623 87.9031 54.7858V51.3025C87.9031 49.7175 87.3133 48.925 86.1338 48.925C85.4703 48.925 84.9911 49.1001 84.6962 49.4502C84.4013 49.8004 84.217 50.2151 84.1433 50.6943V54.7858C84.1433 55.0623 84.042 55.2742 83.8392 55.4217C83.6365 55.5691 83.4245 55.6428 83.2034 55.6428C82.9638 55.6428 82.7426 55.5691 82.5399 55.4217C82.3556 55.2742 82.2634 55.0623 82.2634 54.7858V51.3025C82.2634 50.4915 82.1068 49.8926 81.7934 49.5055C81.4801 49.1185 81.0562 48.925 80.5217 48.925C79.7292 48.925 79.1948 49.1738 78.9183 49.6714C78.6603 50.1506 78.5313 50.6851 78.5313 51.2748V54.7858C78.5313 55.0623 78.4299 55.2742 78.2272 55.4217C78.0429 55.5691 77.8309 55.6428 77.5913 55.6428Z" fill="white"/>
<path d="M70.2559 55.6428C69.4634 55.6428 68.7538 55.4585 68.1272 55.0899C67.5006 54.7213 67.0122 54.2145 66.662 53.5694C66.3118 52.9059 66.1367 52.1687 66.1367 51.3578C66.1367 50.5653 66.3118 49.8557 66.662 49.2291C67.0122 48.6024 67.5006 48.114 68.1272 47.7638C68.7538 47.3952 69.4634 47.2109 70.2559 47.2109C70.772 47.2109 71.2327 47.3031 71.6382 47.4874C72.0437 47.6533 72.3938 47.8744 72.6887 48.1509C72.7256 47.8929 72.8362 47.6993 73.0205 47.5703C73.2048 47.4229 73.4075 47.3492 73.6287 47.3492C73.8683 47.3492 74.0802 47.4321 74.2645 47.598C74.4673 47.7454 74.5686 47.9758 74.5686 48.2891V54.7858C74.5686 55.0623 74.4673 55.2742 74.2645 55.4217C74.0802 55.5691 73.8683 55.6428 73.6287 55.6428C73.3891 55.6428 73.1679 55.5691 72.9652 55.4217C72.7809 55.2742 72.6887 55.0623 72.6887 54.7858V54.6752C72.3938 54.9701 72.0437 55.2005 71.6382 55.3664C71.2327 55.5507 70.772 55.6428 70.2559 55.6428ZM70.4218 53.9288C71.1221 53.9288 71.6751 53.6984 72.0805 53.2377C72.486 52.7585 72.6887 52.1319 72.6887 51.3578C72.6887 50.6206 72.486 50.0308 72.0805 49.5885C71.6751 49.1461 71.1221 48.925 70.4218 48.925C69.703 48.925 69.1224 49.1461 68.6801 49.5885C68.2378 50.0308 68.0166 50.6206 68.0166 51.3578C68.0166 52.1319 68.2378 52.7585 68.6801 53.2377C69.1224 53.6984 69.703 53.9288 70.4218 53.9288Z" fill="white"/>
<path d="M59.496 55.6434C58.4454 55.6434 57.487 55.3946 56.6208 54.8969C55.773 54.3809 55.0911 53.6897 54.575 52.8235C54.0774 51.9389 53.8286 50.9436 53.8286 49.8378C53.8286 48.6767 54.0774 47.663 54.575 46.7968C55.0911 45.9121 55.7822 45.2302 56.6485 44.751C57.5331 44.2718 58.5191 44.0322 59.6065 44.0322C60.3622 44.0322 61.0625 44.1336 61.7076 44.3363C62.3527 44.5206 62.9609 44.8247 63.5322 45.2486C63.7534 45.4329 63.864 45.6817 63.864 45.9951C63.864 46.2347 63.781 46.4466 63.6151 46.6309C63.4677 46.7968 63.265 46.8797 63.0069 46.8797C62.8411 46.8797 62.6568 46.8152 62.454 46.6862C62.0117 46.3545 61.5509 46.1149 61.0718 45.9674C60.5926 45.82 60.1134 45.7463 59.6342 45.7463C58.5099 45.7463 57.5792 46.1241 56.842 46.8797C56.1232 47.6169 55.7638 48.603 55.7638 49.8378C55.7638 51.0358 56.1048 52.0218 56.7867 52.7959C57.487 53.5515 58.3901 53.9293 59.496 53.9293C60.1595 53.9293 60.74 53.8095 61.2376 53.5699C61.7537 53.3304 62.1591 53.0263 62.454 52.6576C62.7673 52.2706 62.9424 51.8928 62.9793 51.5242C62.9793 51.2293 62.8319 51.0818 62.537 51.0818H60.5741C59.9659 51.0818 59.6618 50.7962 59.6618 50.2248C59.6618 49.9668 59.7448 49.7641 59.9106 49.6166C60.0765 49.4692 60.2977 49.3955 60.5741 49.3955H63.7257C64.1312 49.3955 64.4261 49.4876 64.6104 49.6719C64.7947 49.8378 64.8868 50.1695 64.8868 50.6672C64.8868 51.5703 64.6565 52.3996 64.1957 53.1553C63.7534 53.9109 63.1267 54.5191 62.3158 54.9799C61.5049 55.4222 60.5649 55.6434 59.496 55.6434Z" fill="white"/>
</svg>
